<svg width="64" height="64" viewBox="0 0 64 64" fill="none" xmlns="http://www.w3.org/2000/svg">
<g filter="url(#filter0_d)">
<circle cx="32" cy="28" r="24" fill="white"/>
<path d="M32.4969 23.665C30.3853 23.665 28.662 25.3883 28.662 27.5C28.662 29.6117 30.3853 31.335 32.4969 31.335C34.6085 31.335 36.3318 29.6117 36.3318 27.5C36.3318 25.3883 34.6085 23.665 32.4969 23.665ZM43.9987 27.5C43.9987 25.9119 44.0131 24.3382 43.9239 22.753C43.8347 20.9118 43.4147 19.2777 42.0683 17.9313C40.7191 16.582 39.0879 16.1648 37.2467 16.0757C35.6586 15.9865 34.085 16.0009 32.4998 16.0009C30.9117 16.0009 29.3381 15.9865 27.7529 16.0757C25.9117 16.1648 24.2776 16.5849 22.9312 17.9313C21.582 19.2806 21.1648 20.9118 21.0757 22.753C20.9865 24.3411 21.0009 25.9148 21.0009 27.5C21.0009 29.0852 20.9865 30.6618 21.0757 32.247C21.1648 34.0882 21.5849 35.7223 22.9312 37.0687C24.2805 38.418 25.9117 38.8352 27.7529 38.9243C29.341 39.0135 30.9146 38.9991 32.4998 38.9991C34.0878 38.9991 35.6615 39.0135 37.2467 38.9243C39.0879 38.8352 40.7219 38.4151 42.0683 37.0687C43.4176 35.7194 43.8347 34.0882 43.9239 32.247C44.016 30.6618 43.9987 29.0881 43.9987 27.5ZM32.4969 33.4006C29.2316 33.4006 26.5964 30.7653 26.5964 27.5C26.5964 24.2347 29.2316 21.5994 32.4969 21.5994C35.7622 21.5994 38.3974 24.2347 38.3974 27.5C38.3974 30.7653 35.7622 33.4006 32.4969 33.4006ZM38.6391 22.7358C37.8767 22.7358 37.261 22.1201 37.261 21.3577C37.261 20.5953 37.8767 19.9797 38.6391 19.9797C39.4014 19.9797 40.0171 20.5953 40.0171 21.3577C40.0173 21.5388 39.9818 21.7181 39.9127 21.8854C39.8435 22.0526 39.742 22.2047 39.614 22.3327C39.486 22.4607 39.334 22.5622 39.1667 22.6313C38.9994 22.7005 38.8201 22.736 38.6391 22.7358Z" fill="#F178B6"/>
</g>
<defs>
<filter id="filter0_d" x="0" y="0" width="64" height="64" filterUnits="userSpaceOnUse" color-interpolation-filters="sRGB">
<feFlood flood-opacity="0" result="BackgroundImageFix"/>
<feColorMatrix in="SourceAlpha" type="matrix" values="0 0 0 0 0 0 0 0 0 0 0 0 0 0 0 0 0 0 127 0"/>
<feOffset dy="4"/>
<feGaussianBlur stdDeviation="4"/>
<feColorMatrix type="matrix" values="0 0 0 0 0 0 0 0 0 0 0 0 0 0 0 0 0 0 0.08 0"/>
<feBlend mode="normal" in2="BackgroundImageFix" result="effect1_dropShadow"/>
<feBlend mode="normal" in="SourceGraphic" in2="effect1_dropShadow" result="shape"/>
</filter>
</defs>
</svg>
