<svg width="28" height="48" viewBox="0 0 28 48" fill="none" xmlns="http://www.w3.org/2000/svg">
<path d="M19.2266 40.0234C19.1558 39.5564 19.0834 39.1169 19.0303 38.6749C19.024 38.6223 19.1126 38.5266 19.1761 38.5019C19.4321 38.4019 19.697 38.326 19.9555 38.2322C20.0298 38.2053 20.0936 38.1478 20.1619 38.1043C20.1012 38.0524 20.0488 37.9807 19.979 37.9511C18.3767 37.2774 16.7447 36.6695 15.1806 35.9143C14.2866 35.4829 13.5437 35.531 12.6691 35.9315C10.9471 36.7201 9.1785 37.4023 7.42891 38.1309C7.35047 38.1634 7.28092 38.2189 7.1777 38.2819C7.33872 38.4023 7.48131 38.5006 7.61534 38.6103C8.35214 39.2127 8.63479 40.0383 8.6494 40.9607C8.67163 42.3563 8.67766 43.7554 8.6494 45.1519C8.61764 46.6666 7.72522 47.5212 6.39453 47.8269C4.7885 48.1959 3.2968 47.824 1.90831 46.9714C1.78794 46.8974 1.68124 46.6939 1.67711 46.5472C1.65392 45.7705 1.65456 44.9926 1.66853 44.2153C1.68441 43.3328 1.97945 42.6013 2.83249 42.2336C3.0621 42.1362 3.31776 42.0586 3.56293 42.0489C4.20986 42.0236 4.85837 42.0405 5.52879 42.0405V43.5126H4.03423C3.31268 43.5126 3.16087 43.6665 3.1596 44.3948C3.1596 44.8452 3.1415 45.2967 3.16278 45.7462C3.16786 45.8595 3.26631 46.0253 3.36413 46.0688C4.27274 46.4738 5.2093 46.6367 6.19064 46.3573C6.75087 46.1976 7.13896 45.8027 7.14594 45.2172C7.16405 43.697 7.16754 42.1755 7.12308 40.6566C7.10053 39.8868 6.38532 39.3584 5.46845 39.3285C4.51284 39.2961 3.62645 39.5852 2.75182 39.939C2.59112 40.0039 2.43423 40.075 2.2259 40.1639C2.13697 39.7339 2.0382 39.3444 1.98866 38.9485C1.97754 38.8605 2.12046 38.7064 2.2259 38.6564C3.3257 38.1348 4.46837 37.8012 5.69838 37.8853C5.75079 37.8888 5.80446 37.8706 5.89084 37.8573C5.67711 36.6565 5.56182 35.4635 5.77111 34.2617C5.9804 33.0598 6.52443 32.0128 7.2174 30.996C4.402 30.2609 2.18906 28.6044 0.0266113 26.8015C2.52347 24.8951 4.99525 22.9955 8.2305 22.4052C10.123 14.9941 12.019 7.56999 13.9369 0.0605469C14.048 0.450007 14.144 0.757681 14.2249 1.07087C14.4638 1.99681 14.7013 2.92276 14.9309 3.85097C15.2784 5.25757 15.6068 6.66904 15.9647 8.07272C16.4141 9.8347 16.8898 11.5899 17.3459 13.3502C18.0043 15.8908 18.6591 18.4325 19.3101 20.9752C19.4108 21.3647 19.4943 21.7622 19.6185 22.1436C19.6579 22.265 19.7891 22.4156 19.9043 22.4419C22.3498 23.0053 24.4976 24.1973 26.5031 25.6919C26.9633 26.035 27.4302 26.3689 27.9764 26.7675C26.7839 27.6233 25.6609 28.4798 24.4877 29.2568C23.3146 30.0337 22.0423 30.5936 20.6535 31.0093C22.2211 33.0939 22.5454 35.3758 21.9801 37.8268C22.3968 37.8726 22.7782 37.8986 23.1552 37.9567C24.7329 38.2059 25.6958 39.3792 25.726 41.0097C25.7451 42.0995 25.4497 43.1215 25.1715 44.151C24.9898 44.8228 24.7828 45.4882 24.6246 46.1658C24.3093 47.5153 23.2634 48.0628 22.0881 47.9434C21.7841 47.9109 21.4897 47.7892 21.1858 47.7467C20.8746 47.7029 20.8101 47.5049 20.7787 47.2365C20.6694 46.2982 20.549 45.3613 20.4322 44.4236C20.3826 44.0257 20.294 43.9433 19.9069 43.9333C19.7306 43.9287 19.554 43.9277 19.3778 43.9232C19.3568 43.9232 19.3359 43.9109 19.2584 43.8859C19.2584 43.4834 19.252 43.0609 19.2657 42.6389C19.2676 42.5828 19.3756 42.4793 19.4273 42.4838C19.9069 42.5244 20.4118 42.5023 20.8565 42.6568C21.5761 42.9064 21.8076 43.5714 21.8915 44.2867C21.9674 44.9358 22.0293 45.5849 22.0998 46.2317C22.1142 46.3166 22.1329 46.4007 22.1557 46.4836C22.3256 46.4836 22.4895 46.4816 22.6534 46.4836C22.895 46.4871 23.057 46.3726 23.1193 46.1363C23.4775 44.7797 23.8542 43.4273 24.1727 42.0606C24.2699 41.6439 24.2413 41.1843 24.2016 40.7491C24.1244 39.9085 23.4607 39.3178 22.5098 39.3438C21.7813 39.3639 21.0534 39.5272 20.3321 39.6651C19.9685 39.7378 19.6226 39.8929 19.2266 40.0234ZM13.0877 10.5107L12.934 10.5189L10.0274 22.0842C10.8287 22.0407 11.5639 22.0005 12.2994 21.9615C13.0934 21.9193 13.0899 21.92 13.0934 21.0995C13.1061 17.7205 13.1191 14.3416 13.1324 10.9628C13.1328 10.8122 13.1032 10.6617 13.0877 10.5107ZM13.0969 31.6977C12.8358 31.6799 12.6189 31.6678 12.4023 31.65C11.3403 31.5617 10.2786 31.4689 9.21597 31.3904C9.13848 31.3848 9.03399 31.4553 8.97651 31.5224C8.22605 32.3857 7.64932 33.3526 7.4521 34.5031C7.35682 35.0688 7.36158 35.653 7.31522 36.3148C7.8983 36.072 8.37214 35.8727 8.84725 35.677C10.1811 35.1282 11.515 34.5843 12.845 34.0247C12.9501 33.9806 13.0816 33.8345 13.0848 33.7326C13.1077 33.068 13.0969 32.4042 13.0969 31.6977ZM14.7893 21.8963L17.8492 22.0715C16.8533 18.1205 15.8694 14.2174 14.8855 10.3131L14.7902 10.3303L14.7893 21.8963ZM20.4893 36.2664C20.5078 36.1366 20.5271 36.0522 20.5313 35.9659C20.6122 34.2954 20.0511 32.8635 18.9925 31.611C18.8519 31.4446 18.7096 31.4024 18.5066 31.4189C17.3567 31.514 16.2064 31.6049 15.0548 31.6786C14.8325 31.6928 14.7791 31.7759 14.7826 31.984C14.7922 32.5237 14.7947 33.0641 14.7772 33.6035C14.7696 33.8465 14.8592 33.9569 15.0767 34.0452C16.3401 34.557 17.5964 35.0873 18.856 35.6079C19.3902 35.8283 19.9275 36.0402 20.4893 36.2667V36.2664ZM13.0924 23.6644C10.4142 23.3889 4.82089 24.7854 4.03709 25.9301H13.0924V23.6644ZM23.7528 25.923C20.9559 24.1023 17.9385 23.656 14.7769 23.6339C14.7769 24.3207 14.7896 24.9717 14.7709 25.6218C14.7629 25.898 14.8582 25.96 15.1126 25.9593C17.8778 25.9509 20.643 25.9538 23.4083 25.9528C23.4902 25.9525 23.5718 25.9392 23.7528 25.923ZM4.18953 27.6817C4.18413 27.7048 4.17873 27.7278 4.17302 27.7508C4.2314 27.8003 4.29247 27.8464 4.35595 27.8888C5.38429 28.5015 6.45202 29.0117 7.60708 29.3411C8.20382 29.5115 8.644 29.4862 9.09973 28.9923C9.54435 28.5093 10.1062 28.1371 10.6584 27.6817H4.18953ZM17.3414 27.6817L17.2776 27.8041C17.3373 27.8333 17.4046 27.8524 17.4551 27.8937C18.035 28.3704 18.6216 28.8397 19.1847 29.3369C19.3581 29.4901 19.5051 29.5278 19.7176 29.4745C20.6805 29.2347 21.6076 28.8978 22.4882 28.4324C22.9068 28.2114 23.3174 27.9741 23.7316 27.7444L23.703 27.6817H17.3414ZM13.0721 29.986V28.1968C12.2445 28.6972 11.4645 29.1704 10.6978 29.8406L13.0721 29.986ZM14.8166 29.9766L17.047 29.8468C17.0594 29.8069 17.0715 29.7666 17.0839 29.7267L14.8166 28.1796V29.9766Z" fill="#DE5C8E"/>
<path d="M10.4336 37.9949H11.8977V38.4042C11.8977 40.5336 11.925 42.6633 11.8862 44.7917C11.8675 45.8075 12.3829 46.3099 13.2144 46.4469C14.0458 46.5839 14.8341 46.4313 15.5988 46.097C15.8246 45.9997 15.8764 45.85 15.8754 45.607C15.8646 43.1959 15.8681 40.7851 15.8678 38.374V38.0047H17.3119C17.3243 38.0738 17.3494 38.1468 17.3494 38.2202C17.3532 41.0026 17.3592 43.7849 17.3443 46.5673C17.3443 46.715 17.1922 46.9327 17.0565 46.996C16.4303 47.2881 15.8011 47.5951 15.1424 47.7866C14.2065 48.0593 13.2484 48.0563 12.3124 47.7217C11.071 47.2768 10.433 46.4459 10.4161 45.1078C10.3872 42.81 10.4047 40.5115 10.4044 38.2134C10.4096 38.14 10.4193 38.0671 10.4336 37.9949Z" fill="#DE5C8E"/>
<path d="M26.957 47.969C27.5183 47.969 27.9733 47.5041 27.9733 46.9305C27.9733 46.3569 27.5183 45.8919 26.957 45.8919C26.3957 45.8919 25.9407 46.3569 25.9407 46.9305C25.9407 47.5041 26.3957 47.969 26.957 47.969Z" fill="#DE5C8E"/>
<path d="M19.9815 31.6328C20.0838 31.6328 20.0838 31.4705 19.9815 31.4705C19.8792 31.4705 19.8792 31.6328 19.9815 31.6328Z" fill="#DE5C8E"/>
</svg>
